<?xml version="1.0" encoding="UTF-8" standalone="no"?>
<svg
   xmlns:dc="http://purl.org/dc/elements/1.1/"
   xmlns:cc="http://creativecommons.org/ns#"
   xmlns:rdf="http://www.w3.org/1999/02/22-rdf-syntax-ns#"
   xmlns:svg="http://www.w3.org/2000/svg"
   xmlns="http://www.w3.org/2000/svg"
   xmlns:xlink="http://www.w3.org/1999/xlink"
   xmlns:sodipodi="http://sodipodi.sourceforge.net/DTD/sodipodi-0.dtd"
   xmlns:inkscape="http://www.inkscape.org/namespaces/inkscape"
   version="1.1"
   x="0px"
   y="0px"
   xml:space="preserve"
   height="610"
   width="612"
   id="svg2"
   inkscape:version="0.48.4 r9939"
   sodipodi:docname="phptransformers.svg"><metadata
     id="metadata16"><rdf:RDF><cc:Work
         rdf:about=""><dc:format>image/svg+xml</dc:format><dc:type
           rdf:resource="http://purl.org/dc/dcmitype/StillImage" /><dc:title></dc:title></cc:Work></rdf:RDF></metadata><defs
     id="defs14"><radialGradient
       gradientTransform="matrix(1.5089497,0,0,1.3582164,-39.028917,76.957747)"
       gradientUnits="userSpaceOnUse"
       xlink:href="#linearGradient3798"
       id="radialGradient3870"
       fy="-48.544521"
       fx="77.914261"
       r="146"
       cy="-48.544521"
       cx="77.914261" /><linearGradient
       gradientUnits="userSpaceOnUse"
       id="linearGradient3798"
       y2="84"
       x2="299"
       y1="84"
       x1="150"><stop
         offset="0"
         style="stop-color:#dddce9;stop-opacity:1"
         id="stop3800" /><stop
         offset="0.37"
         style="stop-color:#5664a3;stop-opacity:1"
         id="stop3802" /><stop
         offset="1"
         style="stop-color:#000000;stop-opacity:1"
         id="stop3804" /></linearGradient><radialGradient
       inkscape:collect="always"
       xlink:href="#linearGradient3798"
       id="radialGradient3844"
       gradientUnits="userSpaceOnUse"
       gradientTransform="matrix(1.5089497,0,0,1.3582164,-39.028917,76.957747)"
       cx="77.914261"
       cy="-48.544521"
       fx="77.914261"
       fy="-48.544521"
       r="146" /></defs><sodipodi:namedview
     pagecolor="#ffffff"
     bordercolor="#666666"
     borderopacity="1"
     objecttolerance="10"
     gridtolerance="10"
     guidetolerance="10"
     inkscape:pageopacity="0"
     inkscape:pageshadow="2"
     inkscape:window-width="958"
     inkscape:window-height="1030"
     id="namedview12"
     showgrid="false"
     inkscape:zoom="1.0942767"
     inkscape:cx="305.72351"
     inkscape:cy="284.77993"
     inkscape:window-x="960"
     inkscape:window-y="25"
     inkscape:window-maximized="0"
     inkscape:current-layer="svg2" /><rect
     width="299.25751"
     height="610"
     id="rect4"
     style="fill:#6c7eb7;fill-opacity:1"
     x="0"
     y="0" /><path
     d="m 480.5,297.69521 0.8,29.81955 -45.1,24.71621 v 214.64075 l 102.8,-84.45538 13.7,-233.25295 -72.2,48.53182 0,0 z M 70.6,482.41634 M 299.2,610 384,609.6998 351.6,526.14501 299.1,525.84482 m 5.7,-9.6063 m -5.6,0.20013 56.8,-0.10007 34.6,89.55873 39.7,-35.2231 -1.7,-213.33989 -74.2,-34.12238 -1.8,145.69554 -53.3,-0.3002 m 5.5,-7.20472 m -5.6,0.20013 46.7,-0.20013 V 318.00853 l 20.2,-129.08465 -67,43.02822 m 0.1,-10.40682 181.4,-120.37894 9.2,-59.539043 -13,-5.703741 -5.3,-2.601706 -5.3,-2.50164 -5.2,-2.401575 -5.3,-2.301509 -5.2,-2.201444 -5.2,-2.001312 -5.3,-2.001312 -5.2,-1.901247 -5.3,-1.701115 -5.2,-1.701116 -5.1,-1.500984 -5.2,-1.400919 -5.2,-1.400918 -5.1,-1.2007879 -4.9,-1.300853 -5.5,-1.1007218 -5.5,-1.1007218 -5.8,-0.9005905 -5.8,-0.8005249 -6,-0.800525 -3,-0.4002624 -3,-0.3001969 -6.3,-0.6003937 -6.3,-0.5003281 -5.3,-0.40026245 -2.7,-0.10006562 -2.7,-0.10006561 -2.8,-0.10006562 -2.8,-0.10006562 -5.9,-0.10006561 -3,-0.10006562 -3.1,-0.10006562 -3.1,-0.10006561 H 317 L 313.8,0 h -3.3 -5.6 l 0,0 h -5.6 m -62.4,183.02001 m 303.9,-67.54429 -1.9,12.20801 -123.9,84.05512 0.8,-11.40749 125,-84.85564 0,0 z m -8.5,53.13484 -1.7,10.80709 -119,80.85302 0.7,-10.10663 120,-81.55348 0,0 z M 612,34.122375 498.6,42.527887 484.4,106.06955 372.7,182.91995 354.3,311.80446 481.8,290.89075 569,228.14961 612,34.122375 l 0,0 z"
     id="path10" /><path
     inkscape:connector-curvature="0"
     d="M 9.5765662,558.88871 30.735954,445.6477 l 48.931083,0 c 21.159383,1.39803 31.739073,12.58232 31.739073,32.15485 0,33.55289 -25.126763,53.12541 -47.608613,51.72737 l -23.804311,0 -5.289847,29.35879 -25.1267728,0 z m 35.7064678,-50.32935 6.612307,-41.94111 17.192003,0 c 9.257232,0 15.869541,4.19411 15.869541,12.58233 -1.322463,23.76664 -11.902155,27.96075 -23.804311,29.35878 l -15.86954,0 z"
     id="p"
     style="fill-rule:evenodd;stroke:#ffffff;stroke-width:2.71944904;stroke-linejoin:round" /><path
     inkscape:connector-curvature="0"
     d="m 104.89422,529.52992 24.75236,-113.24101 25.12677,0 -6.22137,29.35879 23.80432,0 c 21.11502,1.39803 28.69493,12.58232 25.60644,26.5627 l -11.07589,57.31952 -26.44924,0 10.89847,-51.72737 c 1.54424,-6.99019 1.67731,-11.1843 -7.57992,-11.1843 l -19.83693,0 -13.89824,62.91167 -25.12677,0 z"
     id="h"
     style="stroke:#ffffff;stroke-width:2.71944904;stroke-linejoin:round" /><use
     height="1"
     width="1"
     y="0"
     x="0"
     transform="translate(177.20987,-2.622661e-7)"
     id="p2"
     xlink:href="#p" /></svg>